<svg width="174" height="40" viewBox="0 0 174 40" fill="none" xmlns="http://www.w3.org/2000/svg">
<path d="M103.54 15.7218V15.1977C103.54 13.3875 104.736 12.2523 106.577 12.2523V9C104.828 9 102.68 9.58296 101.606 10.7182C100.532 11.8534 99.9801 13.3262 99.9801 15.1977V30.2344H103.54V18.698H106.577V15.7218H103.54Z" fill="white"/>
<path d="M112.214 9H108.655V30.2344H112.214V9Z" fill="white"/>
<path d="M152.412 15.7218H148.852V30.2344H152.412V21.5163C152.412 21.3207 152.478 21.1298 152.608 20.9843C153.85 19.6 155.535 18.8773 157.689 18.79V15.4457C155.541 15.4457 153.792 16.1514 152.412 17.5627V15.7218Z" fill="white"/>
<path d="M129.268 15.7218H125.74V25.3253C124.604 26.7673 123.346 27.473 121.965 27.473C119.756 27.473 118.406 26.0003 118.406 23.515V15.7218H114.877V23.7298C114.877 25.8469 115.46 27.5344 116.626 28.7923C117.792 30.0503 119.326 30.6946 121.229 30.6946C122.917 30.6946 124.42 30.1423 125.74 29.0071V30.2344H129.268V15.7218Z" fill="white"/>
<path d="M91.2034 15.2119C89.5465 15.2119 88.0429 15.7642 86.7235 16.8687V15.6721H83.164V30.1847H86.7235V20.5199C87.8588 19.1392 89.1169 18.4335 90.467 18.4335C92.6763 18.4335 94.0265 19.8449 94.0265 22.3915V30.1847H97.5552V22.1767C97.5552 20.0596 96.9722 18.3721 95.8062 17.1142C94.6402 15.8562 93.1059 15.2119 91.2034 15.2119Z" fill="white"/>
<path fill-rule="evenodd" clip-rule="evenodd" d="M80.9239 22.9437C80.9239 20.7653 80.1874 18.9551 78.7146 17.513C77.2724 16.071 75.4313 15.3346 73.222 15.3346C71.0127 15.3346 69.1716 16.071 67.6987 17.513C66.2259 18.9551 65.4894 20.7653 65.4894 22.9437C65.4894 25.1528 66.2259 26.9937 67.6987 28.4664C69.1716 29.9085 71.0127 30.6449 73.222 30.6449C75.4006 30.6449 77.2417 29.9085 78.7146 28.4664C80.1874 26.9937 80.9239 25.1528 80.9239 22.9437ZM77.3951 22.9437C77.3951 24.2017 76.9962 25.2755 76.2291 26.1346C75.462 26.9937 74.4494 27.4233 73.222 27.4233C71.9946 27.4233 70.982 26.9937 70.1842 26.1346C69.4171 25.2755 69.0182 24.2017 69.0182 22.9437C69.0182 20.4585 70.7365 18.5562 73.222 18.5562C75.6768 18.5562 77.3951 20.4585 77.3951 22.9437Z" fill="white"/>
<path fill-rule="evenodd" clip-rule="evenodd" d="M146.689 23.1559C146.689 23.3969 146.671 23.7399 146.635 24.1849H135.185C135.385 25.2789 135.904 26.1503 136.742 26.7992C137.598 27.4297 138.655 27.7449 139.912 27.7449C141.515 27.7449 142.836 27.2072 143.875 26.1318L145.706 28.2733C145.05 29.0706 144.221 29.6732 143.219 30.0811C142.217 30.489 141.087 30.6929 139.83 30.6929C138.227 30.6929 136.815 30.3685 135.594 29.7195C134.374 29.0706 133.426 28.1713 132.752 27.0217C132.097 25.8536 131.769 24.5372 131.769 23.0724C131.769 21.6262 132.087 20.3283 132.725 19.1787C133.381 18.0106 134.283 17.1021 135.431 16.4531C136.578 15.8042 137.872 15.4797 139.311 15.4797C140.732 15.4797 141.998 15.8042 143.11 16.4531C144.239 17.0835 145.114 17.9828 145.733 19.1509C146.371 20.3005 146.689 21.6355 146.689 23.1559ZM139.311 18.2609C139.104 18.2609 138.902 18.2729 138.706 18.297H138.646C137.823 18.3939 137.105 18.6977 136.494 19.2085C135.758 19.8215 135.309 20.6445 135.147 21.6777H143.311C143.167 20.662 142.727 19.839 141.991 19.2085C141.394 18.6977 140.679 18.3939 139.847 18.297H139.803C139.65 18.2734 139.487 18.2609 139.311 18.2609Z" fill="white"/>
<path fill-rule="evenodd" clip-rule="evenodd" d="M173.744 15.7614H170.215V17.2978C169.212 16.184 167.522 15.4797 165.693 15.4797C163.667 15.4797 162.022 16.1207 160.58 17.6241C159.169 19.0968 158.463 20.8764 158.463 22.9934C158.463 25.1105 159.169 26.89 160.58 28.3628C162.022 29.8355 163.741 30.5719 165.766 30.5719C167.484 30.5719 168.957 30.1116 170.215 29.2219V30.2344H173.744V15.7614ZM165.974 27.3122C168.384 27.3122 170.338 25.3572 170.338 22.9455C170.338 20.5338 168.384 18.5787 165.974 18.5787C163.564 18.5787 161.61 20.5338 161.61 22.9455C161.61 25.3572 163.564 27.3122 165.974 27.3122Z" fill="white"/>
<path d="M52.5287 22.9089C52.5287 25.3962 54.2471 27.3 56.7019 27.3C58.5123 27.3 59.8624 26.2867 60.1999 24.7206H63.8207C63.6059 26.4095 62.8081 27.822 61.4887 28.8967C60.1693 29.9715 58.5736 30.4935 56.7019 30.4935C54.5233 30.4935 52.6822 29.7565 51.2093 28.3133C49.7364 26.8701 49 25.0584 49 22.9089C49 20.7288 49.7364 18.9171 51.2093 17.4739C52.6822 16.0306 54.5233 15.2937 56.7019 15.2937C58.543 15.2937 60.1386 15.8464 61.458 16.9211C62.8081 17.9959 63.6059 19.3777 63.8207 21.0665H60.1999C59.8624 19.5005 58.5123 18.5179 56.7019 18.5179C54.2471 18.5179 52.5287 20.4217 52.5287 22.9089Z" fill="white"/>
<path fill-rule="evenodd" clip-rule="evenodd" d="M20.7374 17.4981C17.9763 17.4981 15.7379 19.7365 15.7379 22.4977C15.7379 25.2589 17.9763 27.4973 20.7374 27.4973C23.4986 27.4973 25.737 25.2589 25.737 22.4977C25.737 19.7365 23.4986 17.4981 20.7374 17.4981ZM10.7383 22.4977C10.7383 16.9753 15.2151 12.4985 20.7374 12.4985C26.2598 12.4985 30.7366 16.9753 30.7366 22.4977C30.7366 28.0201 26.2598 32.4969 20.7374 32.4969C15.2151 32.4969 10.7383 28.0201 10.7383 22.4977Z" fill="white"/>
<path d="M29.1286 7.14001C27.4822 6.23871 25.9553 5.11467 24.8676 3.84637C23.7907 2.59078 23.2364 1.31038 23.2364 0H18.2368C18.2368 2.83141 19.4618 5.22299 21.0725 7.10112C22.6724 8.96655 24.7413 10.438 26.7279 11.5255C30.6113 13.6513 33.2356 17.77 33.2356 22.4981C33.2356 25.5741 32.1244 28.3905 30.2817 30.5679C31.3802 30.1263 32.5372 29.7678 33.7255 29.545C34.7297 29.3568 35.7862 29.2612 36.8614 29.3062C37.746 27.2135 38.2351 24.9129 38.2351 22.4981C38.2351 15.8707 34.5498 10.1077 29.1286 7.14001Z" fill="white"/>
<path d="M6.76807 33.0477C8.13936 34.8651 9.89015 36.4431 11.9859 37.6531C17.7254 40.9668 24.559 40.6568 29.8397 37.4457C31.4435 36.4705 33.1804 35.7102 34.8226 35.4024C36.4484 35.0976 37.8344 35.2577 38.9693 35.9129L41.469 31.5831C39.017 30.1674 36.3333 30.0325 33.9014 30.4884C31.486 30.9412 29.1772 31.9972 27.2421 33.1739C23.4595 35.4741 18.5804 35.6874 14.4857 33.3234C11.8158 31.7819 9.92974 29.4041 8.96741 26.7119C8.80066 27.8854 8.53249 29.0682 8.1308 30.2099C7.79141 31.1746 7.3454 32.1383 6.76807 33.0477Z" fill="white"/>
<path d="M18.5701 5.12885C16.3146 5.40882 14.0767 6.13558 11.9846 7.34347C6.24508 10.6572 3.09679 16.7302 3.23731 22.909C3.27999 24.7855 3.06998 26.6698 2.51547 28.246C1.96651 29.8063 1.13482 30.9266 0 31.5818L2.49979 35.9116C4.95186 34.4959 6.41055 32.2392 7.23169 29.9052C8.04727 27.587 8.2871 25.0595 8.2356 22.7953C8.13494 18.3693 10.3897 14.0373 14.4844 11.6732C17.15 10.1342 20.147 9.68869 22.9557 10.1975C22.0225 9.46618 21.1321 8.64237 20.3439 7.72336C19.6792 6.94832 19.0685 6.08176 18.5701 5.12885Z" fill="white"/>
</svg>
