<svg width="216" height="216" viewBox="0 0 216 216" fill="none" xmlns="http://www.w3.org/2000/svg">
<circle cx="108" cy="108" r="105" fill="#07CE98" fill-opacity="0.2" stroke="#E3E3E3" stroke-width="6"/>
<path d="M79.0647 95.1608L105.685 112.633C106.302 113.009 107.114 113.195 107.924 113.195C108.733 113.195 109.543 113.007 110.162 112.633L136.783 95.1608C138.019 94.4118 139.021 92.5989 139.021 91.1105V58.7665C139.021 57.2756 138.019 55.4628 136.783 54.7137L110.162 38.5636C109.543 38.1879 108.733 38 107.924 38C107.114 38 106.305 38.1879 105.685 38.5636L79.0647 54.7137C77.8284 55.4628 76.8262 57.2756 76.8262 58.7665V91.1105C76.8262 92.6013 77.8284 94.4118 79.0647 95.1608ZM133.837 90.8885C133.837 90.8909 133.835 90.8909 133.835 90.8933L110.516 106.199V78.3837L133.837 62.7363V90.8885ZM107.924 43.2703L131.879 57.8051L108.072 73.7795L83.9781 57.8002L107.924 43.2703ZM82.0103 62.7143L105.332 78.1836V106.202L82.0128 90.8958C82.0128 90.8933 82.0103 90.8933 82.0103 90.8909V62.7143Z" fill="#08CC96"/>
<path d="M27.2385 122.388L53.8591 139.861C54.476 140.237 55.288 140.422 56.0976 140.422C56.9071 140.422 57.7167 140.234 58.3361 139.861L71.6451 131.126V124.923L58.6872 133.427V105.609L72.9985 96.0076C72.1474 94.4997 71.6427 92.7844 71.6427 91.113V90.6738L56.2439 101.005L32.1495 85.0253L56.0951 70.4978L71.6427 79.9307V73.865L58.3336 65.7912C57.7167 65.4154 56.9047 65.2275 56.0951 65.2275C55.2856 65.2275 54.476 65.4154 53.8566 65.7912L27.2385 81.9412C26.0022 82.6903 25 84.5007 25 85.994V118.338C25 119.826 26.0022 121.639 27.2385 122.388ZM30.1817 89.9394L53.503 105.406V133.427L30.1841 118.121C30.1841 118.118 30.1817 118.118 30.1817 118.116V89.9394Z" fill="#08CC96"/>
<path d="M157.16 133.427L144.203 124.923V131.126L157.512 139.861C158.129 140.237 158.941 140.422 159.75 140.422C160.56 140.422 161.369 140.234 161.989 139.861L188.609 122.388C189.845 121.639 190.848 119.826 190.848 118.338V85.994C190.848 84.5032 189.845 82.6903 188.609 81.9412L161.991 65.7912C161.374 65.4154 160.562 65.2275 159.753 65.2275C158.943 65.2275 158.133 65.4154 157.514 65.7912L144.205 73.865V79.9307L159.753 70.4978L183.708 85.0327L159.901 101.005L144.205 90.5933V91.113C144.205 92.76 143.72 94.4509 142.891 95.9441L157.163 105.409V133.427H157.16ZM162.345 105.609L185.666 89.9614V118.116C185.666 118.118 185.663 118.118 185.663 118.121L162.345 133.427V105.609Z" fill="#08CC96"/>
<path d="M79 112L108.001 128.798L137 112V164.823L108.001 185L79 164.823V112Z" stroke="#E3E3E3" stroke-width="5" stroke-miterlimit="10" stroke-linecap="round" stroke-linejoin="round"/>
<path d="M108 160C113.523 160 118 155.523 118 150C118 144.477 113.523 140 108 140C102.477 140 98 144.477 98 150C98 155.523 102.477 160 108 160Z" fill="#08CC96"/>
</svg>
