<svg width="64" height="100" viewBox="0 0 64 100" fill="none" xmlns="http://www.w3.org/2000/svg">
<g clip-path="url(#clip0)">
<path opacity="0.2" d="M36.8565 62.218C50.3568 62.218 61.301 51.1757 61.301 37.5543C61.301 23.9329 50.3568 12.8906 36.8565 12.8906C23.3563 12.8906 12.4121 23.9329 12.4121 37.5543C12.4121 51.1757 23.3563 62.218 36.8565 62.218Z" fill="#07CE98"/>
<path d="M13.0969 62.4242C-0.153473 48.9031 -0.153473 26.9032 13.0969 13.3823C19.5161 6.83266 28.0501 3.22581 37.1277 3.22581C46.2055 3.22581 54.7392 6.83266 61.1586 13.3823C61.7753 14.0121 62.7768 14.0121 63.3939 13.3823C64.0114 12.7524 64.0114 11.7311 63.3939 11.1016C56.378 3.94234 47.0499 0 37.1277 0C27.2057 0 17.8777 3.94234 10.8617 11.1016C-3.62187 25.8798 -3.62187 49.9262 10.8617 64.7047C12.6353 66.5145 14.5573 68.1168 16.5985 69.5039C15.8873 67.8387 15.2953 66.0539 15.0661 64.2707C14.3921 63.6816 13.7313 63.0715 13.0969 62.4242Z" fill="#E3E3E3"/>
<path d="M60.84 102V97.5C61.4722 96 63.9919 89.7742 63.9919 85.75V78.5082C64 78.4113 64 78.3227 64 78.2258V69.1773C64 65.734 61.1119 62.9356 57.5682 62.9356C57.1039 62.9356 56.6319 62.984 56.1761 63.0809C55.04 61.0805 53.4241 60.0645 51.3521 60.0645C50.8641 60.0645 50.3521 60.1531 49.8882 60.2742C48.6959 58.2176 46.248 56.8305 43.624 56.9516V39.0645C43.624 35.4678 40.832 32.6452 37.272 32.6452C33.7681 32.6452 31.024 35.4678 31.024 39.0645V63.4031C30.4081 62.5484 29.7921 61.766 29.192 61.0727C27.96 59.6695 26.192 58.8629 24.336 58.8629C22.8081 58.8629 21.3201 59.4113 20.1601 60.4031C15.9921 63.9516 19.216 70 21.5761 74.4195C22.2481 75.6695 22.8721 76.8469 23.184 77.6856C23.8801 79.5727 24.592 81.5242 25.36 83.266C27.224 88.5887 28.752 91.9273 30.328 94.0887C31.824 96.1453 32.28 99.7098 32.376 102H60.84ZM60.8241 85.75C60.8241 88.4918 59.1919 93.1129 58.216 95.5484L57.6799 98.7742V102H35.544C35.512 101.137 35.4321 100 35.2401 98.7742L34.512 95.5727C34.1201 94.3547 33.592 93.1695 32.8641 92.1695C31.4961 90.2902 30.0561 87.0969 28.3201 82.1211C28.304 82.0805 28.2881 82.0402 28.272 82C27.536 80.3469 26.832 78.4195 26.1441 76.5566C25.752 75.5 25.072 74.2258 24.3521 72.8789C22.5201 69.4356 20.0081 64.734 22.1841 62.8871C22.7841 62.3711 23.5441 62.0887 24.336 62.0887C25.296 62.0887 26.2 62.5 26.8241 63.2176C28.2641 64.8711 29.7921 67.0887 31.2401 69.6453C31.5921 70.2742 32.3201 70.5887 33.016 70.3953C33.7041 70.2098 34.1841 69.5727 34.1841 68.8387V39.0645C34.1841 37.2742 35.544 35.871 37.272 35.871C39.0641 35.871 40.4639 37.2742 40.4639 39.0645V58.9031C40.4639 58.9113 40.4639 58.9113 40.4639 58.9195V68.5C40.4639 69.3871 41.1679 70.1129 42.048 70.1129C42.92 70.1129 43.624 69.3871 43.624 68.5V60.2016C43.7279 60.1938 43.8319 60.1695 43.9281 60.1695C45.5199 60.1695 47.0722 61.2418 47.4 62.5242V71.3871C47.4 72.2742 48.1121 73 48.9841 73C49.856 73 50.5682 72.2742 50.5682 71.3871V63.4273C50.88 63.3469 51.1601 63.2902 51.3521 63.2902C52.096 63.2902 52.9521 63.5324 53.7282 65.266V74.016C53.7282 74.9031 54.4322 75.6289 55.3042 75.6289C56.1761 75.6289 56.8879 74.9031 56.8879 74.016V66.2258C57.1121 66.1856 57.344 66.1613 57.5682 66.1613C59.368 66.1613 60.84 67.516 60.84 69.1773V78.2258C60.8322 78.2902 60.8241 78.3629 60.8241 78.4273V85.75Z" fill="#E3E3E3"/>
<g filter="url(#filter0_d)">
<path d="M36.8161 46.4528C41.7254 46.4528 45.705 42.4374 45.705 37.4842C45.705 32.531 41.7254 28.5156 36.8161 28.5156C31.9069 28.5156 27.9272 32.531 27.9272 37.4842C27.9272 42.4374 31.9069 46.4528 36.8161 46.4528Z" fill="#08CC96"/>
</g>
</g>
<defs>
<filter id="filter0_d" x="9.92725" y="14.5156" width="53.7778" height="53.9372" filterUnits="userSpaceOnUse" color-interpolation-filters="sRGB">
<feFlood flood-opacity="0" result="BackgroundImageFix"/>
<feColorMatrix in="SourceAlpha" type="matrix" values="0 0 0 0 0 0 0 0 0 0 0 0 0 0 0 0 0 0 127 0"/>
<feOffset dy="4"/>
<feGaussianBlur stdDeviation="9"/>
<feColorMatrix type="matrix" values="0 0 0 0 0.352941 0 0 0 0 0.862745 0 0 0 0 0.792157 0 0 0 0.5 0"/>
<feBlend mode="normal" in2="BackgroundImageFix" result="effect1_dropShadow"/>
<feBlend mode="normal" in="SourceGraphic" in2="effect1_dropShadow" result="shape"/>
</filter>
<clipPath id="clip0">
<rect width="64" height="100" fill="white"/>
</clipPath>
</defs>
</svg>
