<svg width="100" height="100" viewBox="0 0 100 100" fill="none" xmlns="http://www.w3.org/2000/svg">
<g clip-path="url(#clip0)">
<path opacity="0.2" d="M52.1428 80.4762C68.0538 80.4762 80.9523 67.5778 80.9523 51.6667C80.9523 35.7556 68.0538 22.8572 52.1428 22.8572C36.2317 22.8572 23.3333 35.7556 23.3333 51.6667C23.3333 67.5778 36.2317 80.4762 52.1428 80.4762Z" fill="#07CE98"/>
<path d="M44.8357 21.0533C32.6575 23.8133 23.1517 33.6131 20.8222 45.9489L11.5342 44.3099C11.4685 41.9127 9.94014 39.8808 7.80947 39.0744C12.0075 24.572 23.1758 13.0299 37.45 8.31282C38.3902 10.2224 40.3556 11.5364 42.628 11.5364C42.6589 11.5364 42.6899 11.5362 42.7207 11.5357L44.8357 21.0533ZM51.8431 20.2729C50.2373 20.2729 48.6598 20.3928 47.1184 20.6241L44.9871 11.0335C46.8908 10.1793 48.2469 8.32297 48.3847 6.13593C49.5263 6.05077 50.6794 6.00746 51.8431 6.00746C65.278 6.00746 77.3632 11.7878 85.7464 20.9971C85.1345 21.9129 84.7775 23.0138 84.7775 24.1981C84.7775 25.1513 85.0086 26.0504 85.4182 26.8426L76.5368 32.1715C70.7522 24.9198 61.8402 20.2729 51.8431 20.2729ZM83.4129 51.8431C83.4129 45.2418 81.3871 39.1138 77.923 34.047L86.8947 28.6639C87.889 29.4779 89.1603 29.9663 90.5459 29.9663C91.0574 29.9663 91.5536 29.8997 92.0258 29.7747C95.6287 36.3211 97.6785 43.8426 97.6785 51.8431C97.6785 59.8435 95.6287 67.3651 92.0258 73.9115C91.5536 73.7861 91.0574 73.7196 90.5459 73.7196C89.0565 73.7196 87.699 74.2842 86.6756 75.2105L78.3029 69.0703C81.5349 64.1163 83.4129 58.199 83.4129 51.8431ZM51.8431 83.4129C62.0895 83.4129 71.1962 78.5316 76.9636 70.967L85.3019 77.0818C84.9651 77.8139 84.7775 78.6292 84.7775 79.488C84.7775 80.6723 85.1345 81.7732 85.7464 82.689C77.3632 91.8981 65.278 97.6785 51.8431 97.6785C26.5287 97.6785 6.00746 77.1574 6.00746 51.8431C6.00746 51.3043 6.01675 50.7675 6.03517 50.233C8.35478 50.1273 10.3172 48.6517 11.1323 46.5963L20.4757 48.245C20.3417 49.4258 20.2729 50.6263 20.2729 51.8431C20.2729 63.9445 27.0819 74.456 37.0778 79.7545C36.9358 80.2555 36.8598 80.7842 36.8598 81.3306C36.8598 84.5167 39.4423 87.099 42.628 87.099C45.1624 87.099 47.315 85.4646 48.0895 83.1923C49.3201 83.3383 50.5727 83.4129 51.8431 83.4129ZM36.8671 6.0601C21.7078 11.0156 9.85981 23.2905 5.4988 38.709C2.43818 38.8497 0 41.3756 0 44.471C0 46.9376 1.54816 49.0426 3.72578 49.867C3.69933 50.5225 3.68598 51.1813 3.68598 51.8431C3.68598 78.4392 25.2466 100 51.8431 100C65.9239 100 78.5928 93.9569 87.3986 84.3225C88.3038 84.9129 89.3847 85.256 90.5459 85.256C93.7316 85.256 96.3139 82.6737 96.3139 79.488C96.3139 77.6455 95.4502 76.0048 94.1053 74.9488C97.8632 68.0895 100 60.2158 100 51.8431C100 43.4702 97.8632 35.5965 94.1053 28.7374C95.4502 27.6814 96.3139 26.0406 96.3139 24.1981C96.3139 21.0124 93.7316 18.4299 90.5459 18.4299C89.3847 18.4299 88.3038 18.773 87.3986 19.3633C78.5928 9.72914 65.9239 3.68598 51.8431 3.68598C50.5708 3.68598 49.3105 3.7353 48.0632 3.83213C47.2677 1.59875 45.1345 0 42.628 0C39.4423 0 36.8598 2.58252 36.8598 5.76823C36.8598 5.86608 36.8622 5.9634 36.8671 6.0601ZM51.8431 81.0914C50.6713 81.0914 49.5153 81.0225 48.3794 80.8885C48.2344 78.9775 47.1583 77.3263 45.6034 76.388L49.0689 66.5699C49.9679 66.7383 50.8952 66.8263 51.8431 66.8263C60.1182 66.8263 66.8263 60.1182 66.8263 51.8431C66.8263 43.568 60.1182 36.8598 51.8431 36.8598C49.1574 36.8598 46.6371 37.5663 44.4574 38.8036L35.9909 27.2585C40.5583 24.3073 46.0006 22.5944 51.8431 22.5944C67.9966 22.5944 81.0914 35.6894 81.0914 51.8431C81.0914 67.9966 67.9966 81.0914 51.8431 81.0914ZM22.5944 51.8431C22.5944 42.3648 27.1028 33.9395 34.0921 28.5948L42.5319 40.1035C39.0759 42.8483 36.8598 47.0868 36.8598 51.8431C36.8598 58.3565 41.0159 63.899 46.8208 65.9636L43.4142 75.6158C43.1572 75.5809 42.8947 75.5627 42.628 75.5627C40.8207 75.5627 39.2075 76.3938 38.1499 77.6947C28.8965 72.7833 22.5944 63.0493 22.5944 51.8431ZM64.5048 51.8431C64.5048 58.8359 58.8359 64.5048 51.8431 64.5048C44.8501 64.5048 39.1813 58.8359 39.1813 51.8431C39.1813 44.8501 44.8501 39.1813 51.8431 39.1813C58.8359 39.1813 64.5048 44.8501 64.5048 51.8431Z" fill="#E3E3E3" stroke="#E3E3E3"/>
<g filter="url(#filter0_d)">
<path d="M34.2858 32.8572C37.4417 32.8572 40.0001 30.2988 40.0001 27.1429C40.0001 23.987 37.4417 21.4286 34.2858 21.4286C31.1299 21.4286 28.5715 23.987 28.5715 27.1429C28.5715 30.2988 31.1299 32.8572 34.2858 32.8572Z" fill="#E3E3E3"/>
</g>
<g filter="url(#filter1_d)">
<path d="M51.9047 57.619C55.0606 57.619 57.619 55.0606 57.619 51.9047C57.619 48.7488 55.0606 46.1904 51.9047 46.1904C48.7488 46.1904 46.1904 48.7488 46.1904 51.9047C46.1904 55.0606 48.7488 57.619 51.9047 57.619Z" fill="#08CC96"/>
</g>
</g>
<defs>
<filter id="filter0_d" x="10.5715" y="7.42859" width="47.4286" height="47.4286" filterUnits="userSpaceOnUse" color-interpolation-filters="sRGB">
<feFlood flood-opacity="0" result="BackgroundImageFix"/>
<feColorMatrix in="SourceAlpha" type="matrix" values="0 0 0 0 0 0 0 0 0 0 0 0 0 0 0 0 0 0 127 0"/>
<feOffset dy="4"/>
<feGaussianBlur stdDeviation="9"/>
<feColorMatrix type="matrix" values="0 0 0 0 0.352941 0 0 0 0 0.862745 0 0 0 0 0.792157 0 0 0 0.5 0"/>
<feBlend mode="normal" in2="BackgroundImageFix" result="effect1_dropShadow"/>
<feBlend mode="normal" in="SourceGraphic" in2="effect1_dropShadow" result="shape"/>
</filter>
<filter id="filter1_d" x="28.1904" y="32.1904" width="47.4286" height="47.4286" filterUnits="userSpaceOnUse" color-interpolation-filters="sRGB">
<feFlood flood-opacity="0" result="BackgroundImageFix"/>
<feColorMatrix in="SourceAlpha" type="matrix" values="0 0 0 0 0 0 0 0 0 0 0 0 0 0 0 0 0 0 127 0"/>
<feOffset dy="4"/>
<feGaussianBlur stdDeviation="9"/>
<feColorMatrix type="matrix" values="0 0 0 0 0.352941 0 0 0 0 0.862745 0 0 0 0 0.792157 0 0 0 0.5 0"/>
<feBlend mode="normal" in2="BackgroundImageFix" result="effect1_dropShadow"/>
<feBlend mode="normal" in="SourceGraphic" in2="effect1_dropShadow" result="shape"/>
</filter>
<clipPath id="clip0">
<rect width="100" height="100" fill="white"/>
</clipPath>
</defs>
</svg>
