<svg width="92" height="100" viewBox="0 0 92 100" fill="none" xmlns="http://www.w3.org/2000/svg">
<path d="M42.4062 11.5498C43.2001 11.5498 43.8437 10.9034 43.8437 10.1059V1.44381C43.8437 0.646666 43.2001 0 42.4062 0C41.6124 0 40.9688 0.646302 40.9688 1.44381V10.1059C40.9688 10.9031 41.6124 11.5498 42.4062 11.5498Z" fill="#08CC96"/>
<path d="M42.4062 73.6284C41.6124 73.6284 40.9688 74.2748 40.9688 75.0725V83.7344C40.9688 84.5316 41.6124 85.178 42.4062 85.178C43.2001 85.178 43.8437 84.5321 43.8437 83.7344V75.0725C43.8437 74.2752 43.2001 73.6284 42.4062 73.6284Z" fill="#08CC96"/>
<path d="M38.094 7.49328V4.58331C20.5291 6.58105 6.55262 20.6178 4.56348 38.2582H7.46112C9.4219 22.2125 22.1172 9.46251 38.094 7.49328Z" fill="#E3E3E3"/>
<path d="M77.3519 38.2579H80.2499C78.2607 20.6175 64.2838 6.58068 46.719 4.58295V7.49296C62.6955 9.46219 75.3915 22.2125 77.3519 38.2579Z" fill="#E3E3E3"/>
<path d="M7.46112 46.9206H4.56348C6.55262 64.5606 20.5291 78.5975 38.094 80.5952V77.6852C22.1172 75.7157 9.4219 62.9656 7.46112 46.9206Z" fill="#E3E3E3"/>
<path d="M73.3135 42.589C73.3135 43.3861 73.9575 44.0328 74.7512 44.0328H83.3762C84.17 44.0328 84.8135 43.3865 84.8135 42.589C84.8135 41.7918 84.17 41.1451 83.3762 41.1451H74.7512C73.9575 41.1455 73.3135 41.7918 73.3135 42.589Z" fill="#08CC96"/>
<path d="M11.5 42.589C11.5 41.7918 10.8564 41.1451 10.0625 41.1451H1.4375C0.643641 41.1451 0 41.7915 0 42.589C0 43.3861 0.643641 44.0328 1.4375 44.0328H10.0625C10.8564 44.0328 11.5 43.3865 11.5 42.589Z" fill="#08CC96"/>
<path d="M72.4759 99.6967C73.6318 98.8048 72.4682 97.6698 72.4682 97.6698L63.8189 86.7112C62.8962 85.4789 63.1135 83.7062 64.2933 82.7684C64.2933 82.7684 77.1246 72.7684 77.1463 72.7511C78.2882 71.8611 79.9577 72.0998 80.8326 73.2361L89.4346 84.1775C89.9266 84.8043 90.8309 84.9093 91.4532 84.4162C92.0765 83.9221 92.1825 83.0143 91.6904 82.3884L83.0983 71.4593C82.1855 70.2716 80.8763 69.5179 79.412 69.3379C77.9576 69.1598 76.5194 69.5675 75.3726 70.4788L75.2824 70.5493L72.1079 66.4961C76.4991 61.0043 79.4201 54.2779 80.2499 46.9206H77.3519C75.3915 62.9661 62.6955 75.7161 46.719 77.6852V80.5952C51.4277 80.0598 55.8748 78.6521 59.9062 76.5484L62.8335 80.2516L62.5205 80.4962C60.1168 82.4071 59.6689 85.9739 61.5116 88.4325C61.5116 88.4325 69.8426 98.628 70.2165 99.1012C70.216 99.1012 71.2619 100.633 72.4759 99.6967ZM62.4343 75.1029C65.2927 73.3207 67.9007 71.172 70.1903 68.7179L73.0108 72.3193L65.1046 78.4811L62.4343 75.1029Z" fill="#E3E3E3"/>
<path opacity="0.2" d="M42.1034 69.9907C57.2077 69.9907 69.4521 57.6464 69.4521 42.4189C69.4521 27.1915 57.2077 14.8472 42.1034 14.8472C26.9991 14.8472 14.7546 27.1915 14.7546 42.4189C14.7546 57.6464 26.9991 69.9907 42.1034 69.9907Z" fill="#07CE98"/>
<g filter="url(#filter0_d)">
<path d="M42.058 52.3667C47.5505 52.3667 52.003 47.8778 52.003 42.3406C52.003 36.8033 47.5505 32.3145 42.058 32.3145C36.5656 32.3145 32.113 36.8033 32.113 42.3406C32.113 47.8778 36.5656 52.3667 42.058 52.3667Z" fill="#08CC96"/>
</g>
<defs>
<filter id="filter0_d" x="14.113" y="18.3145" width="55.89" height="56.0522" filterUnits="userSpaceOnUse" color-interpolation-filters="sRGB">
<feFlood flood-opacity="0" result="BackgroundImageFix"/>
<feColorMatrix in="SourceAlpha" type="matrix" values="0 0 0 0 0 0 0 0 0 0 0 0 0 0 0 0 0 0 127 0"/>
<feOffset dy="4"/>
<feGaussianBlur stdDeviation="9"/>
<feColorMatrix type="matrix" values="0 0 0 0 0.352941 0 0 0 0 0.862745 0 0 0 0 0.792157 0 0 0 0.5 0"/>
<feBlend mode="normal" in2="BackgroundImageFix" result="effect1_dropShadow"/>
<feBlend mode="normal" in="SourceGraphic" in2="effect1_dropShadow" result="shape"/>
</filter>
</defs>
</svg>
